<?xml version="1.0" encoding="UTF-8" standalone="no"?>
<svg
   xmlns:dc="http://purl.org/dc/elements/1.1/"
   xmlns:cc="http://creativecommons.org/ns#"
   xmlns:rdf="http://www.w3.org/1999/02/22-rdf-syntax-ns#"
   xmlns:svg="http://www.w3.org/2000/svg"
   xmlns="http://www.w3.org/2000/svg"
   xmlns:sodipodi="http://sodipodi.sourceforge.net/DTD/sodipodi-0.dtd"
   xmlns:inkscape="http://www.inkscape.org/namespaces/inkscape"
   version="1.1"
   id="svg6612"
   viewBox="0 0 113.15696 74.757975"
   height="21.098362mm"
   width="31.935408mm"
   sodipodi:docname="juliafin-small.svg"
   inkscape:version="0.92.0 r">
  <sodipodi:namedview
     pagecolor="#ffffff"
     bordercolor="#666666"
     borderopacity="1"
     objecttolerance="10"
     gridtolerance="10"
     guidetolerance="10"
     inkscape:pageopacity="0"
     inkscape:pageshadow="2"
     inkscape:window-width="1004"
     inkscape:window-height="494"
     id="namedview16"
     showgrid="false"
     inkscape:zoom="2.9595505"
     inkscape:cx="60.350377"
     inkscape:cy="39.87092"
     inkscape:window-x="0"
     inkscape:window-y="49"
     inkscape:window-maximized="0"
     inkscape:current-layer="svg6612" />
  <defs
     id="defs6614">
    <style
       id="style2">
        @import url(&quot;https://fonts.googleapis.com/css?family=Roboto+Slab:400&quot;)
    </style>
  </defs>
  <metadata
     id="metadata6617">
    <rdf:RDF>
      <cc:Work
         rdf:about="">
        <dc:format>image/svg+xml</dc:format>
        <dc:type
           rdf:resource="http://purl.org/dc/dcmitype/StillImage" />
        <dc:title />
      </cc:Work>
    </rdf:RDF>
  </metadata>
  <g
     transform="translate(131.57845,-494.98321)"
     id="layer1">
    <g
       id="g179"
       transform="translate(-1201.0505,-503.14081)">
      <g
         id="g181">
        <path
           id="path183"
           d="m 1072.518,1039.169 4.082,0.791 0,27.523 -4.082,0.79 0,4.609 15.881,0 0,-4.609 -4.109,-0.79 0,-10.536 13.434,0 0,-5.926 -13.434,0 0,-10.562 12.511,0 0.342,4.583 5.902,0 0,-10.509 -30.526,0 0,4.636 z m 78.105,0 4.106,0.791 0,20.358 -0.156,0.026 -15.488,-25.812 -11.773,0 0,4.636 4.083,0.791 0,27.523 -4.083,0.79 0,4.609 15.882,0 0,-4.609 -4.109,-0.79 0,-20.386 0.159,-0.026 15.486,25.812 7.666,0 0,-32.922 4.109,-0.791 0,-4.636 -15.881,0 0,4.636 z m -43.465,0 4.109,0.791 0,27.523 -4.109,0.79 0,4.609 15.882,0 0,-4.609 -4.109,-0.79 0,-27.523 4.109,-0.791 0,-4.636 -15.882,0 0,4.636 z"
           style="opacity:0.8;fill:#771b95" />
        <path
           style="fill:none"
           d="m 1069.472,998.12402 h 97.585 v 32.52998 h -97.585 z"
           id="rect185" />
        <g
           aria-label="Julia"
           transform="translate(1069.4714,1026.4414)"
           style="font-size:37.17549896px;font-family:'Roboto Slab'"
           id="text187">
          <path
             d="m 20.402959,-26.429456 v 2.305316 l -2.958792,0.508259 v 16.3005851 q 0,3.5396593 -2.25086,5.6271507 -2.232708,2.06933928 -5.8086718,2.06933928 -3.8119408,0 -6.0628011,-1.92412248 Q 1.0709738,-3.485203 1.1617343,-7.1700791 l 0.036304,-0.1089126 h 3.4307468 q 0,2.4505333 1.2343427,3.666724 1.2524948,1.1980385 3.5215072,1.1980385 1.9785788,0 3.2310738,-1.3251032 1.252495,-1.3432553 1.252495,-3.5759635 V -23.615881 l -2.958792,-0.508259 v -2.305316 h 6.534755 z"
             style="font-size:37.17549896px;font-family:'Roboto Slab'"
             id="path19" />
          <path
             d="m 37.157346,-2.9043359 q -0.925757,1.5792327 -2.396077,2.43238132 -1.452168,0.85314866 -3.358138,0.85314866 -3.19477,0 -4.991828,-2.05118718 -1.797057,-2.0511872 -1.797057,-6.3895389 v -8.767464 l -2.250861,-0.508259 v -2.305316 h 2.250861 3.575963 v 11.6173432 q 0,3.1403131 0.925757,4.3201996 0.925757,1.1798864 2.886184,1.1798864 1.90597,0 3.140313,-0.7623881 1.252495,-0.7805403 1.887818,-2.196404 V -16.826996 l -2.632054,-0.508259 v -2.305316 h 2.632054 3.575964 v 16.8451477 l 2.25086,0.5082588 V 0 h -5.463782 z"
             style="font-size:37.17549896px;font-family:'Roboto Slab'"
             id="path21" />
          <path
             d="m 45.198726,-26.011958 v -2.305317 h 6.534755 v 25.5218517 l 2.958793,0.5082588 V 0 h -9.493548 v -2.2871645 l 2.958792,-0.5082588 V -25.503699 Z"
             style="font-size:37.17549896px;font-family:'Roboto Slab'"
             id="path23" />
          <path
             d="m 57.378785,-2.2871645 2.958792,-0.5082588 V -16.826996 l -2.958792,-0.508259 v -2.305316 h 6.534756 v 16.8451477 l 2.958792,0.5082588 V 0 h -9.493548 z m 6.534756,-22.3815385 h -3.575964 v -3.648572 h 3.575964 z"
             style="font-size:37.17549896px;font-family:'Roboto Slab'"
             id="path25" />
          <path
             d="m 82.392375,0 q -0.163369,-0.79869236 -0.254129,-1.4340158 -0.09076,-0.6353235 -0.127065,-1.270647 -1.03467,1.3251033 -2.59575,2.21455612 -1.542929,0.87130076 -3.303682,0.87130076 -3.067705,0 -4.66509,-1.48847208 -1.597384,-1.5066243 -1.597384,-4.2294391 0,-2.7954233 2.25086,-4.3020475 2.269012,-1.5247764 6.208018,-1.5247764 h 3.684876 v -2.287164 q 0,-1.72445 -1.089126,-2.722815 -1.089126,-1.016518 -3.031401,-1.016518 -1.343255,0 -2.377925,0.34489 -1.016517,0.34489 -1.651841,0.943909 l -0.381194,2.069339 h -2.759119 v -3.81194 q 1.343256,-1.070974 3.249226,-1.706298 1.90597,-0.653475 4.138679,-0.653475 3.339986,0 5.409325,1.706297 2.069339,1.706297 2.069339,4.882915 v 9.4572434 q 0,0.3811941 0,0.7442361 0.01815,0.3630419 0.05446,0.7260839 l 1.452168,0.1996731 V 0 Z M 76.63816,-2.6139023 q 1.778905,0 3.249225,-0.8531486 1.47032,-0.8531487 2.105644,-2.0511872 v -3.2310737 h -3.811941 q -2.196404,0 -3.485203,1.0165176 -1.270647,1.0165175 -1.270647,2.4686855 0,1.288799 0.798692,1.9785788 0.798693,0.6716276 2.41423,0.6716276 z"
             style="font-size:37.17549896px;font-family:'Roboto Slab'"
             id="path27" />
        </g>
      </g>
      <path
         style="opacity:0.8;fill:#1d1d1b"
         d="m 1182.629,1024.501 a 3.6240001,3.6240001 0 0 1 -3.624,3.624 3.6240001,3.6240001 0 0 1 -3.624,-3.624 3.6240001,3.6240001 0 0 1 3.624,-3.624 3.6240001,3.6240001 0 0 1 3.624,3.624 z"
         id="circle189" />
      <path
         style="opacity:0.8;fill:#771b95"
         d="m 1172.358,1024.501 a 3.6240001,3.6240001 0 0 1 -3.624,3.624 3.6240001,3.6240001 0 0 1 -3.624,-3.624 3.6240001,3.6240001 0 0 1 3.624,-3.624 3.6240001,3.6240001 0 0 1 3.624,3.624 z"
         id="circle191" />
      <path
         style="opacity:0.8;fill:#771b95"
         d="m 1182.629,1034.726 a 3.6240001,3.6240001 0 0 1 -3.624,3.624 3.6240001,3.6240001 0 0 1 -3.624,-3.624 3.6240001,3.6240001 0 0 1 3.624,-3.624 3.6240001,3.6240001 0 0 1 3.624,3.624 z"
         id="circle193" />
    </g>
  </g>
</svg>
